<?xml version="1.0" encoding="utf-8"?>
<!-- Generator: Adobe Illustrator 26.2.1, SVG Export Plug-In . SVG Version: 6.00 Build 0)  -->
<svg version="1.1" id="Layer_1" xmlns="http://www.w3.org/2000/svg" xmlns:xlink="http://www.w3.org/1999/xlink" x="0px" y="0px"
	 viewBox="0 0 119.87 80.78" style="enable-background:new 0 0 119.87 80.78;" xml:space="preserve">
<style type="text/css">
	
		.st0{clip-path:url(#SVGID_00000159449708636150581540000004828758888930301353_);fill:url(#SVGID_00000039108377311972449100000009741588242005304742_);}
	.st1{fill:#262052;}
	.st2{fill:#EB6413;}
	.st3{fill:#F6F6F6;}
	.st4{fill:url(#SVGID_00000065045608282797321340000014601944667774334614_);}
	.st5{fill:url(#SVGID_00000152973372810735511980000014007674192432141223_);}
	.st6{fill:none;stroke:url(#SVGID_00000154396361717941125470000001689675118409683373_);stroke-miterlimit:10;}
	.st7{fill:none;stroke:url(#SVGID_00000052815041897402200000000006114165801354549664_);stroke-miterlimit:10;}
	.st8{opacity:0.36;fill:url(#SVGID_00000171694365241857903040000000152478106476803263_);}
	.st9{opacity:0.46;fill:url(#SVGID_00000083780571659264555730000010732734559974354602_);}
	.st10{opacity:0.75;fill:url(#SVGID_00000000190903695187440060000018331530053108705962_);}
	.st11{opacity:0.85;fill:url(#SVGID_00000135674611259780435430000009946444153672157838_);}
	.st12{opacity:0.9;fill:url(#SVGID_00000052087808902647778930000000018694925991081108_);}
	.st13{opacity:0.36;}
	.st14{fill:url(#SVGID_00000179641313600224305500000007351400534426327214_);}
	.st15{fill:url(#SVGID_00000027605590150268999170000010135358912791468706_);}
	.st16{fill:url(#SVGID_00000125598764266393624620000012765141940249135769_);}
	.st17{fill:url(#SVGID_00000062877027498087629110000008882581076632418459_);}
	.st18{fill:url(#SVGID_00000132804390831823622700000016972832783142161593_);}
	.st19{fill:url(#SVGID_00000124848118646477419270000009621386612240756402_);}
</style>
<g>
	<g>
		<g>
			<g>
				<g>
					<g>
						<polygon class="st3" points="10.69,40.28 4.82,40.28 4.82,34.65 23.21,34.65 23.21,40.28 17.35,40.28 17.35,54.57 
							10.69,54.57 						"/>
						<polygon class="st3" points="24.72,34.65 31.38,34.65 31.38,41.68 37.47,41.68 37.47,34.65 44.13,34.65 44.13,54.57 
							37.47,54.57 37.47,47.43 31.38,47.43 31.38,54.57 24.72,54.57 						"/>
					</g>
				</g>
			</g>
			<rect x="10.55" y="57.86" class="st2" width="3.05" height="9.13"/>
			<polygon class="st2" points="15.01,57.86 17.87,57.86 21.12,61.89 21.12,57.86 24.14,57.86 24.14,66.99 21.43,66.99 18.04,62.78 
				18.04,66.99 15.01,66.99 			"/>
			<polygon class="st2" points="32.12,60.44 29.43,60.44 29.43,57.86 37.86,57.86 37.86,60.44 35.17,60.44 35.17,66.99 32.12,66.99 
							"/>
			<polygon class="st2" points="38.9,57.86 41.95,57.86 41.95,61.08 44.74,61.08 44.74,57.86 47.79,57.86 47.79,66.99 44.74,66.99 
				44.74,63.72 41.95,63.72 41.95,66.99 38.9,66.99 			"/>
			<polygon class="st2" points="49.18,57.86 56.97,57.86 56.97,60.37 52.18,60.37 52.18,61.29 56.64,61.29 56.64,63.5 52.18,63.5 
				52.18,64.49 57.04,64.49 57.04,66.99 49.18,66.99 			"/>
			<polygon class="st2" points="62.45,57.86 65.64,57.86 67.6,61.07 69.55,57.86 72.74,57.86 72.74,66.99 69.7,66.99 69.7,62.47 
				67.6,65.72 67.54,65.72 65.44,62.47 65.44,66.99 62.45,66.99 			"/>
			<rect x="74.15" y="57.86" class="st2" width="3.05" height="9.13"/>
			<path class="st2" d="M78.61,57.86h3.5c3.63,0,5.44,1.77,5.44,4.49v0.03c0,2.71-1.85,4.62-5.55,4.62h-3.39V57.86z M81.67,60.52
				v3.81h0.51c1.41,0,2.3-0.57,2.3-1.89v-0.03c0-1.32-0.89-1.89-2.3-1.89H81.67z"/>
			<path class="st2" d="M88.73,57.86h3.5c3.63,0,5.44,1.77,5.44,4.49v0.03c0,2.71-1.85,4.62-5.55,4.62h-3.39V57.86z M91.78,60.52
				v3.81h0.51c1.41,0,2.3-0.57,2.3-1.89v-0.03c0-1.32-0.89-1.89-2.3-1.89H91.78z"/>
			<polygon class="st2" points="98.84,57.86 101.9,57.86 101.9,64.38 106.19,64.38 106.19,66.99 98.84,66.99 			"/>
			<polygon class="st2" points="107.2,57.86 114.99,57.86 114.99,60.37 110.2,60.37 110.2,61.29 114.66,61.29 114.66,63.5 
				110.2,63.5 110.2,64.49 115.05,64.49 115.05,66.99 107.2,66.99 			"/>
			<path class="st3" d="M46.41,34.65h9.73c3.56,0,5.78,0.88,7.17,2.28c1.22,1.22,1.82,2.68,1.82,4.73v0.06
				c0,2.93-1.51,4.92-3.93,6.09l4.64,6.77h-7.6l-3.76-5.69h-1.42v5.69h-6.66V34.65z M55.94,44.12c1.59,0,2.56-0.71,2.56-1.94v-0.06
				c0-1.28-0.97-1.91-2.53-1.91h-2.9v3.9H55.94z"/>
			<rect x="66.82" y="34.65" class="st3" width="6.66" height="19.93"/>
			<polygon class="st3" points="74.36,34.65 81.82,34.65 85.69,45.83 89.56,34.65 96.9,34.65 88.82,54.71 82.44,54.71 			"/>
			<polygon class="st3" points="97.73,34.65 114.72,34.65 114.72,40.11 104.28,40.11 104.28,42.13 114.01,42.13 114.01,46.94 
				104.28,46.94 104.28,49.11 114.86,49.11 114.86,54.57 97.73,54.57 			"/>
			<polygon class="st2" points="85.62,10.42 91.33,20.79 86.87,19.36 85.66,20.85 84.39,19.33 79.92,20.88 			"/>
			<polygon class="st3" points="92,22.34 96.72,30.91 93.04,29.73 92.03,30.96 90.99,29.71 87.29,30.98 			"/>
			<polygon class="st3" points="79.24,22.34 83.97,30.91 80.28,29.73 79.28,30.96 78.23,29.71 74.53,30.98 			"/>
		</g>
	</g>
</g>
</svg>
